<svg width="20vw" viewBox="0 0 365 294" fill="none"
  xmlns="http://www.w3.org/2000/svg">
  <g id="animated-white-cube">
    <path d="M119.326 119.169L200.326 72.1694L282 119L200.326 166.169L119.326 119.169Z" fill="#E9E9E9" />
    <path d="M282.325 166.169L200.326 213.169L200.326 166.169L282 119L282.325 166.169Z" fill="white" />
    <path d="M119.326 167.169L200.326 213.169L200.326 166.169L118.991 119L119.326 167.169Z" fill="#DFDFDF" />
  </g>
  <g id="animated-red-cube">
    <path d="M282 119L363 167L323 189.5L244 141L282 119Z" fill="#972326" />
    <path d="M323.001 236L323 189.5L363.001 167L363.001 214L323.001 236Z" fill="#BD2A2E" />
  </g>
  <path d="M323 236L244.001 188.5L244 141L323 189.5L323 236Z" fill="#711B1D" />
  <g id="animated-beige-cube">
    <path d="M75.0215 189.894L116.771 213.055L116.771 260.385L75.0214 237.223L75.0215 189.894Z" fill="#B09778" />
    <path d="M200.27 213.055L116.768 260.386L116.768 213.056L200.27 165.725L200.27 213.055Z" fill="#F2D0A7" />
    <path d="M158.52 141.557L75.0217 189.894L116.771 213.055L200.269 165.725L158.52 141.557Z" fill="#D9BA94" />
  </g>
  <g id="animated-blue-cube">
    <path d="M81.9053 47.3828L162.091 0.385232L244.009 47.1476L161.905 94.3828L81.9053 47.3828Z" fill="#13124A" />
    <path d="M161.905 94.3828L244.009 47.1476L244 142L162.405 189.383L161.905 94.3828Z" fill="#171559" />
    <path d="M161.905 94.3828L81.9053 47.3828L81 142.148L162.405 189.383L161.905 94.3828Z" fill="#0D0C35" />
  </g>
  <g id="animated-orange-cube-1">
    <path d="M42.1388 163.275L80.9999 142L124 167L82.8005 186.999L42.1388 163.275Z" fill="#F35F40" />
    <path d="M82.6388 281L82.6388 187L124 167L124.138 257L82.6388 281Z" fill="#FF8066" />
    <path d="M82.6381 280.964L83.0003 187L42.1382 163L42.1383 258L82.6381 280.964Z" fill="#FF6444" />
  </g>
</svg>